<mxfile host="Electron" agent="Mozilla/5.0 (Windows NT 10.0; Win64; x64) AppleWebKit/537.36 (KHTML, like Gecko) draw.io/28.1.2 Chrome/138.0.7204.243 Electron/37.4.0 Safari/537.36" version="28.1.2">
  <diagram name="PÃ¡gina-1" id="spVGfaoq-Z5DWZ3Qzf_p">
    <mxGraphModel dx="2276" dy="849" grid="1" gridSize="10" guides="1" tooltips="1" connect="1" arrows="1" fold="1" page="1" pageScale="1" pageWidth="850" pageHeight="1100" math="0" shadow="0">
      <root>
        <mxCell id="0" />
        <mxCell id="1" parent="0" />
        <mxCell id="SCiwUmOoLEwE7jvG9-wX-1" value="VehicleClass" style="swimlane;fontStyle=1;align=center;verticalAlign=top;childLayout=stackLayout;horizontal=1;startSize=26;horizontalStack=0;resizeParent=1;resizeParentMax=0;resizeLast=0;collapsible=1;marginBottom=0;whiteSpace=wrap;html=1;fillColor=#fff2cc;strokeColor=#d6b656;" parent="1" vertex="1">
          <mxGeometry x="190" y="660" width="380" height="554" as="geometry" />
        </mxCell>
        <mxCell id="SCiwUmOoLEwE7jvG9-wX-27" value="- model: String" style="text;strokeColor=none;fillColor=none;align=left;verticalAlign=top;spacingLeft=4;spacingRight=4;overflow=hidden;rotatable=0;points=[[0,0.5],[1,0.5]];portConstraint=eastwest;whiteSpace=wrap;html=1;" parent="SCiwUmOoLEwE7jvG9-wX-1" vertex="1">
          <mxGeometry y="26" width="380" height="26" as="geometry" />
        </mxCell>
        <mxCell id="SCiwUmOoLEwE7jvG9-wX-28" value="- year: int" style="text;strokeColor=none;fillColor=none;align=left;verticalAlign=top;spacingLeft=4;spacingRight=4;overflow=hidden;rotatable=0;points=[[0,0.5],[1,0.5]];portConstraint=eastwest;whiteSpace=wrap;html=1;" parent="SCiwUmOoLEwE7jvG9-wX-1" vertex="1">
          <mxGeometry y="52" width="380" height="26" as="geometry" />
        </mxCell>
        <mxCell id="SCiwUmOoLEwE7jvG9-wX-2" value="&lt;div&gt;- fuelAmount: int&lt;/div&gt;" style="text;strokeColor=none;fillColor=none;align=left;verticalAlign=top;spacingLeft=4;spacingRight=4;overflow=hidden;rotatable=0;points=[[0,0.5],[1,0.5]];portConstraint=eastwest;whiteSpace=wrap;html=1;" parent="SCiwUmOoLEwE7jvG9-wX-1" vertex="1">
          <mxGeometry y="78" width="380" height="26" as="geometry" />
        </mxCell>
        <mxCell id="SCiwUmOoLEwE7jvG9-wX-37" value="- mileage: int" style="text;strokeColor=none;fillColor=none;align=left;verticalAlign=top;spacingLeft=4;spacingRight=4;overflow=hidden;rotatable=0;points=[[0,0.5],[1,0.5]];portConstraint=eastwest;whiteSpace=wrap;html=1;" parent="SCiwUmOoLEwE7jvG9-wX-1" vertex="1">
          <mxGeometry y="104" width="380" height="26" as="geometry" />
        </mxCell>
        <mxCell id="SCiwUmOoLEwE7jvG9-wX-38" value="&lt;u&gt;&lt;b&gt;- numberOfVehicles: {static] int&lt;/b&gt;&lt;/u&gt;&lt;div&gt;&lt;br&gt;&lt;/div&gt;" style="text;strokeColor=default;fillColor=none;align=left;verticalAlign=top;spacingLeft=4;spacingRight=4;overflow=hidden;rotatable=0;points=[[0,0.5],[1,0.5]];portConstraint=eastwest;whiteSpace=wrap;html=1;" parent="SCiwUmOoLEwE7jvG9-wX-1" vertex="1">
          <mxGeometry y="130" width="380" height="26" as="geometry" />
        </mxCell>
        <mxCell id="SCiwUmOoLEwE7jvG9-wX-3" value="" style="line;strokeWidth=1;fillColor=none;align=left;verticalAlign=middle;spacingTop=-1;spacingLeft=3;spacingRight=3;rotatable=0;labelPosition=right;points=[];portConstraint=eastwest;strokeColor=inherit;" parent="SCiwUmOoLEwE7jvG9-wX-1" vertex="1">
          <mxGeometry y="156" width="380" height="8" as="geometry" />
        </mxCell>
        <mxCell id="wwLq3VPQ6yqFHEkdZ07c-9" value="+ VehicleClass(modelIn: String, yearIn: int)" style="text;strokeColor=none;fillColor=none;align=left;verticalAlign=top;spacingLeft=4;spacingRight=4;overflow=hidden;rotatable=0;points=[[0,0.5],[1,0.5]];portConstraint=eastwest;whiteSpace=wrap;html=1;" parent="SCiwUmOoLEwE7jvG9-wX-1" vertex="1">
          <mxGeometry y="164" width="380" height="26" as="geometry" />
        </mxCell>
        <mxCell id="jR9v6x0gmI3ZfGYFWs0g-43" value="+ addFuel(newFuelAmount: int): void&amp;nbsp;" style="text;strokeColor=none;fillColor=none;align=left;verticalAlign=top;spacingLeft=4;spacingRight=4;overflow=hidden;rotatable=0;points=[[0,0.5],[1,0.5]];portConstraint=eastwest;whiteSpace=wrap;html=1;" parent="SCiwUmOoLEwE7jvG9-wX-1" vertex="1">
          <mxGeometry y="190" width="380" height="26" as="geometry" />
        </mxCell>
        <mxCell id="jR9v6x0gmI3ZfGYFWs0g-44" value="+ addKm(newKmNumber: int): void" style="text;strokeColor=none;fillColor=none;align=left;verticalAlign=top;spacingLeft=4;spacingRight=4;overflow=hidden;rotatable=0;points=[[0,0.5],[1,0.5]];portConstraint=eastwest;whiteSpace=wrap;html=1;" parent="SCiwUmOoLEwE7jvG9-wX-1" vertex="1">
          <mxGeometry y="216" width="380" height="26" as="geometry" />
        </mxCell>
        <mxCell id="jR9v6x0gmI3ZfGYFWs0g-13" value="+ getModel(): String" style="text;strokeColor=none;fillColor=none;align=left;verticalAlign=top;spacingLeft=4;spacingRight=4;overflow=hidden;rotatable=0;points=[[0,0.5],[1,0.5]];portConstraint=eastwest;whiteSpace=wrap;html=1;" parent="SCiwUmOoLEwE7jvG9-wX-1" vertex="1">
          <mxGeometry y="242" width="380" height="26" as="geometry" />
        </mxCell>
        <mxCell id="jR9v6x0gmI3ZfGYFWs0g-45" value="+ setModel(model: String): void" style="text;strokeColor=none;fillColor=none;align=left;verticalAlign=top;spacingLeft=4;spacingRight=4;overflow=hidden;rotatable=0;points=[[0,0.5],[1,0.5]];portConstraint=eastwest;whiteSpace=wrap;html=1;" parent="SCiwUmOoLEwE7jvG9-wX-1" vertex="1">
          <mxGeometry y="268" width="380" height="26" as="geometry" />
        </mxCell>
        <mxCell id="jR9v6x0gmI3ZfGYFWs0g-12" value="+ getYear: int" style="text;strokeColor=none;fillColor=none;align=left;verticalAlign=top;spacingLeft=4;spacingRight=4;overflow=hidden;rotatable=0;points=[[0,0.5],[1,0.5]];portConstraint=eastwest;whiteSpace=wrap;html=1;" parent="SCiwUmOoLEwE7jvG9-wX-1" vertex="1">
          <mxGeometry y="294" width="380" height="26" as="geometry" />
        </mxCell>
        <mxCell id="jR9v6x0gmI3ZfGYFWs0g-46" value="+ setYear(year: int): void" style="text;strokeColor=none;fillColor=none;align=left;verticalAlign=top;spacingLeft=4;spacingRight=4;overflow=hidden;rotatable=0;points=[[0,0.5],[1,0.5]];portConstraint=eastwest;whiteSpace=wrap;html=1;" parent="SCiwUmOoLEwE7jvG9-wX-1" vertex="1">
          <mxGeometry y="320" width="380" height="26" as="geometry" />
        </mxCell>
        <mxCell id="jR9v6x0gmI3ZfGYFWs0g-11" value="+ getfuelAmount: int" style="text;strokeColor=none;fillColor=none;align=left;verticalAlign=top;spacingLeft=4;spacingRight=4;overflow=hidden;rotatable=0;points=[[0,0.5],[1,0.5]];portConstraint=eastwest;whiteSpace=wrap;html=1;" parent="SCiwUmOoLEwE7jvG9-wX-1" vertex="1">
          <mxGeometry y="346" width="380" height="26" as="geometry" />
        </mxCell>
        <mxCell id="jR9v6x0gmI3ZfGYFWs0g-47" value="+ setFuelAmount(fuelAmount: int): void" style="text;strokeColor=none;fillColor=none;align=left;verticalAlign=top;spacingLeft=4;spacingRight=4;overflow=hidden;rotatable=0;points=[[0,0.5],[1,0.5]];portConstraint=eastwest;whiteSpace=wrap;html=1;" parent="SCiwUmOoLEwE7jvG9-wX-1" vertex="1">
          <mxGeometry y="372" width="380" height="26" as="geometry" />
        </mxCell>
        <mxCell id="jR9v6x0gmI3ZfGYFWs0g-10" value="+ getMileage: int" style="text;strokeColor=none;fillColor=none;align=left;verticalAlign=top;spacingLeft=4;spacingRight=4;overflow=hidden;rotatable=0;points=[[0,0.5],[1,0.5]];portConstraint=eastwest;whiteSpace=wrap;html=1;" parent="SCiwUmOoLEwE7jvG9-wX-1" vertex="1">
          <mxGeometry y="398" width="380" height="26" as="geometry" />
        </mxCell>
        <mxCell id="jR9v6x0gmI3ZfGYFWs0g-6" value="+ setMileage(mileage: int): void" style="text;strokeColor=none;fillColor=none;align=left;verticalAlign=top;spacingLeft=4;spacingRight=4;overflow=hidden;rotatable=0;points=[[0,0.5],[1,0.5]];portConstraint=eastwest;whiteSpace=wrap;html=1;" parent="SCiwUmOoLEwE7jvG9-wX-1" vertex="1">
          <mxGeometry y="424" width="380" height="26" as="geometry" />
        </mxCell>
        <mxCell id="SCiwUmOoLEwE7jvG9-wX-39" value="+ toString(): String&amp;nbsp;" style="text;strokeColor=none;fillColor=none;align=left;verticalAlign=top;spacingLeft=4;spacingRight=4;overflow=hidden;rotatable=0;points=[[0,0.5],[1,0.5]];portConstraint=eastwest;whiteSpace=wrap;html=1;" parent="SCiwUmOoLEwE7jvG9-wX-1" vertex="1">
          <mxGeometry y="450" width="380" height="26" as="geometry" />
        </mxCell>
        <mxCell id="SCiwUmOoLEwE7jvG9-wX-41" value="+ type(): String" style="text;strokeColor=none;fillColor=none;align=left;verticalAlign=top;spacingLeft=4;spacingRight=4;overflow=hidden;rotatable=0;points=[[0,0.5],[1,0.5]];portConstraint=eastwest;whiteSpace=wrap;html=1;" parent="SCiwUmOoLEwE7jvG9-wX-1" vertex="1">
          <mxGeometry y="476" width="380" height="26" as="geometry" />
        </mxCell>
        <mxCell id="jR9v6x0gmI3ZfGYFWs0g-48" value="+ csvHeader(): String" style="text;strokeColor=none;fillColor=none;align=left;verticalAlign=top;spacingLeft=4;spacingRight=4;overflow=hidden;rotatable=0;points=[[0,0.5],[1,0.5]];portConstraint=eastwest;whiteSpace=wrap;html=1;" parent="SCiwUmOoLEwE7jvG9-wX-1" vertex="1">
          <mxGeometry y="502" width="380" height="26" as="geometry" />
        </mxCell>
        <mxCell id="jR9v6x0gmI3ZfGYFWs0g-27" value="+ toCsvRow(): String" style="text;strokeColor=none;fillColor=none;align=left;verticalAlign=top;spacingLeft=4;spacingRight=4;overflow=hidden;rotatable=0;points=[[0,0.5],[1,0.5]];portConstraint=eastwest;whiteSpace=wrap;html=1;" parent="SCiwUmOoLEwE7jvG9-wX-1" vertex="1">
          <mxGeometry y="528" width="380" height="26" as="geometry" />
        </mxCell>
        <mxCell id="jR9v6x0gmI3ZfGYFWs0g-56" style="edgeStyle=orthogonalEdgeStyle;rounded=0;orthogonalLoop=1;jettySize=auto;html=1;entryX=0;entryY=0.5;entryDx=0;entryDy=0;endArrow=block;endFill=0;" parent="1" source="SCiwUmOoLEwE7jvG9-wX-5" target="SCiwUmOoLEwE7jvG9-wX-27" edge="1">
          <mxGeometry relative="1" as="geometry" />
        </mxCell>
        <mxCell id="SCiwUmOoLEwE7jvG9-wX-5" value="CarClass" style="swimlane;fontStyle=1;align=center;verticalAlign=top;childLayout=stackLayout;horizontal=1;startSize=26;horizontalStack=0;resizeParent=1;resizeParentMax=0;resizeLast=0;collapsible=1;marginBottom=0;whiteSpace=wrap;html=1;fillColor=#d5e8d4;strokeColor=#82b366;" parent="1" vertex="1">
          <mxGeometry x="-534" y="120" width="410" height="346" as="geometry" />
        </mxCell>
        <mxCell id="SCiwUmOoLEwE7jvG9-wX-6" value="- engineType: String" style="text;strokeColor=none;fillColor=none;align=left;verticalAlign=top;spacingLeft=4;spacingRight=4;overflow=hidden;rotatable=0;points=[[0,0.5],[1,0.5]];portConstraint=eastwest;whiteSpace=wrap;html=1;" parent="SCiwUmOoLEwE7jvG9-wX-5" vertex="1">
          <mxGeometry y="26" width="410" height="26" as="geometry" />
        </mxCell>
        <mxCell id="SCiwUmOoLEwE7jvG9-wX-34" value="- speed: int" style="text;strokeColor=none;fillColor=none;align=left;verticalAlign=top;spacingLeft=4;spacingRight=4;overflow=hidden;rotatable=0;points=[[0,0.5],[1,0.5]];portConstraint=eastwest;whiteSpace=wrap;html=1;" parent="SCiwUmOoLEwE7jvG9-wX-5" vertex="1">
          <mxGeometry y="52" width="410" height="26" as="geometry" />
        </mxCell>
        <mxCell id="SCiwUmOoLEwE7jvG9-wX-43" value="&lt;u&gt;&lt;b style=&quot;&quot;&gt;- numberOfCars:&amp;nbsp;&lt;/b&gt;&lt;b&gt;{static] int&lt;/b&gt;&lt;/u&gt;&lt;div&gt;&lt;br&gt;&lt;/div&gt;" style="text;strokeColor=default;fillColor=none;align=left;verticalAlign=top;spacingLeft=4;spacingRight=4;overflow=hidden;rotatable=0;points=[[0,0.5],[1,0.5]];portConstraint=eastwest;whiteSpace=wrap;html=1;" parent="SCiwUmOoLEwE7jvG9-wX-5" vertex="1">
          <mxGeometry y="78" width="410" height="26" as="geometry" />
        </mxCell>
        <mxCell id="SCiwUmOoLEwE7jvG9-wX-7" value="" style="line;strokeWidth=1;fillColor=none;align=left;verticalAlign=middle;spacingTop=-1;spacingLeft=3;spacingRight=3;rotatable=0;labelPosition=right;points=[];portConstraint=eastwest;strokeColor=inherit;" parent="SCiwUmOoLEwE7jvG9-wX-5" vertex="1">
          <mxGeometry y="104" width="410" height="8" as="geometry" />
        </mxCell>
        <mxCell id="SCiwUmOoLEwE7jvG9-wX-54" value="+ CarClass(modelIn: String, yearIn: int, enginTypeIn: String, speedIn: int)" style="text;strokeColor=none;fillColor=none;align=left;verticalAlign=top;spacingLeft=4;spacingRight=4;overflow=hidden;rotatable=0;points=[[0,0.5],[1,0.5]];portConstraint=eastwest;whiteSpace=wrap;html=1;" parent="SCiwUmOoLEwE7jvG9-wX-5" vertex="1">
          <mxGeometry y="112" width="410" height="26" as="geometry" />
        </mxCell>
        <mxCell id="jR9v6x0gmI3ZfGYFWs0g-31" value="+ type(): String" style="text;strokeColor=none;fillColor=none;align=left;verticalAlign=top;spacingLeft=4;spacingRight=4;overflow=hidden;rotatable=0;points=[[0,0.5],[1,0.5]];portConstraint=eastwest;whiteSpace=wrap;html=1;" parent="SCiwUmOoLEwE7jvG9-wX-5" vertex="1">
          <mxGeometry y="138" width="410" height="26" as="geometry" />
        </mxCell>
        <mxCell id="jR9v6x0gmI3ZfGYFWs0g-32" value="+ toCsvRow(): String" style="text;strokeColor=none;fillColor=none;align=left;verticalAlign=top;spacingLeft=4;spacingRight=4;overflow=hidden;rotatable=0;points=[[0,0.5],[1,0.5]];portConstraint=eastwest;whiteSpace=wrap;html=1;" parent="SCiwUmOoLEwE7jvG9-wX-5" vertex="1">
          <mxGeometry y="164" width="410" height="26" as="geometry" />
        </mxCell>
        <mxCell id="jR9v6x0gmI3ZfGYFWs0g-1" value="+ getEngineType(): String" style="text;strokeColor=none;fillColor=none;align=left;verticalAlign=top;spacingLeft=4;spacingRight=4;overflow=hidden;rotatable=0;points=[[0,0.5],[1,0.5]];portConstraint=eastwest;whiteSpace=wrap;html=1;" parent="SCiwUmOoLEwE7jvG9-wX-5" vertex="1">
          <mxGeometry y="190" width="410" height="26" as="geometry" />
        </mxCell>
        <mxCell id="jR9v6x0gmI3ZfGYFWs0g-33" value="+ setEngineType(engineType: String): void" style="text;strokeColor=none;fillColor=none;align=left;verticalAlign=top;spacingLeft=4;spacingRight=4;overflow=hidden;rotatable=0;points=[[0,0.5],[1,0.5]];portConstraint=eastwest;whiteSpace=wrap;html=1;" parent="SCiwUmOoLEwE7jvG9-wX-5" vertex="1">
          <mxGeometry y="216" width="410" height="26" as="geometry" />
        </mxCell>
        <mxCell id="jR9v6x0gmI3ZfGYFWs0g-3" value="+ getSpeed: int" style="text;strokeColor=none;fillColor=none;align=left;verticalAlign=top;spacingLeft=4;spacingRight=4;overflow=hidden;rotatable=0;points=[[0,0.5],[1,0.5]];portConstraint=eastwest;whiteSpace=wrap;html=1;" parent="SCiwUmOoLEwE7jvG9-wX-5" vertex="1">
          <mxGeometry y="242" width="410" height="26" as="geometry" />
        </mxCell>
        <mxCell id="jR9v6x0gmI3ZfGYFWs0g-5" value="+ setSpeed(speed: int): void" style="text;strokeColor=none;fillColor=none;align=left;verticalAlign=top;spacingLeft=4;spacingRight=4;overflow=hidden;rotatable=0;points=[[0,0.5],[1,0.5]];portConstraint=eastwest;whiteSpace=wrap;html=1;" parent="SCiwUmOoLEwE7jvG9-wX-5" vertex="1">
          <mxGeometry y="268" width="410" height="26" as="geometry" />
        </mxCell>
        <mxCell id="SCiwUmOoLEwE7jvG9-wX-8" value="+ showVehicleInfo(): void" style="text;strokeColor=none;fillColor=none;align=left;verticalAlign=top;spacingLeft=4;spacingRight=4;overflow=hidden;rotatable=0;points=[[0,0.5],[1,0.5]];portConstraint=eastwest;whiteSpace=wrap;html=1;" parent="SCiwUmOoLEwE7jvG9-wX-5" vertex="1">
          <mxGeometry y="294" width="410" height="26" as="geometry" />
        </mxCell>
        <mxCell id="jR9v6x0gmI3ZfGYFWs0g-2" value="+ toString(): String" style="text;strokeColor=none;fillColor=none;align=left;verticalAlign=top;spacingLeft=4;spacingRight=4;overflow=hidden;rotatable=0;points=[[0,0.5],[1,0.5]];portConstraint=eastwest;whiteSpace=wrap;html=1;" parent="SCiwUmOoLEwE7jvG9-wX-5" vertex="1">
          <mxGeometry y="320" width="410" height="26" as="geometry" />
        </mxCell>
        <mxCell id="SCiwUmOoLEwE7jvG9-wX-9" value="TruckClass" style="swimlane;fontStyle=1;align=center;verticalAlign=top;childLayout=stackLayout;horizontal=1;startSize=26;horizontalStack=0;resizeParent=1;resizeParentMax=0;resizeLast=0;collapsible=1;marginBottom=0;whiteSpace=wrap;html=1;fillColor=#d5e8d4;strokeColor=#82b366;" parent="1" vertex="1">
          <mxGeometry x="-81" y="120" width="400" height="268" as="geometry" />
        </mxCell>
        <mxCell id="SCiwUmOoLEwE7jvG9-wX-10" value="- cargoType: String" style="text;strokeColor=none;fillColor=none;align=left;verticalAlign=top;spacingLeft=4;spacingRight=4;overflow=hidden;rotatable=0;points=[[0,0.5],[1,0.5]];portConstraint=eastwest;whiteSpace=wrap;html=1;" parent="SCiwUmOoLEwE7jvG9-wX-9" vertex="1">
          <mxGeometry y="26" width="400" height="26" as="geometry" />
        </mxCell>
        <mxCell id="SCiwUmOoLEwE7jvG9-wX-53" value="&lt;u&gt;&lt;b&gt;- numberOfTrucks:&amp;nbsp;&lt;/b&gt;&lt;/u&gt;&lt;u&gt;&lt;b&gt;{static] int&lt;/b&gt;&lt;/u&gt;&lt;div&gt;&lt;br&gt;&lt;/div&gt;" style="text;strokeColor=default;fillColor=none;align=left;verticalAlign=top;spacingLeft=4;spacingRight=4;overflow=hidden;rotatable=0;points=[[0,0.5],[1,0.5]];portConstraint=eastwest;whiteSpace=wrap;html=1;" parent="SCiwUmOoLEwE7jvG9-wX-9" vertex="1">
          <mxGeometry y="52" width="400" height="26" as="geometry" />
        </mxCell>
        <mxCell id="SCiwUmOoLEwE7jvG9-wX-11" value="" style="line;strokeWidth=1;fillColor=none;align=left;verticalAlign=middle;spacingTop=-1;spacingLeft=3;spacingRight=3;rotatable=0;labelPosition=right;points=[];portConstraint=eastwest;strokeColor=inherit;" parent="SCiwUmOoLEwE7jvG9-wX-9" vertex="1">
          <mxGeometry y="78" width="400" height="8" as="geometry" />
        </mxCell>
        <mxCell id="jR9v6x0gmI3ZfGYFWs0g-23" value="+ TruckClass(modelIn: String, yearIn: int, cargoTypeIn: String)" style="text;strokeColor=none;fillColor=none;align=left;verticalAlign=top;spacingLeft=4;spacingRight=4;overflow=hidden;rotatable=0;points=[[0,0.5],[1,0.5]];portConstraint=eastwest;whiteSpace=wrap;html=1;" parent="SCiwUmOoLEwE7jvG9-wX-9" vertex="1">
          <mxGeometry y="86" width="400" height="26" as="geometry" />
        </mxCell>
        <mxCell id="jR9v6x0gmI3ZfGYFWs0g-34" value="+ type(): String" style="text;strokeColor=none;fillColor=none;align=left;verticalAlign=top;spacingLeft=4;spacingRight=4;overflow=hidden;rotatable=0;points=[[0,0.5],[1,0.5]];portConstraint=eastwest;whiteSpace=wrap;html=1;" parent="SCiwUmOoLEwE7jvG9-wX-9" vertex="1">
          <mxGeometry y="112" width="400" height="26" as="geometry" />
        </mxCell>
        <mxCell id="jR9v6x0gmI3ZfGYFWs0g-35" value="+ toCsvRow(): String" style="text;strokeColor=none;fillColor=none;align=left;verticalAlign=top;spacingLeft=4;spacingRight=4;overflow=hidden;rotatable=0;points=[[0,0.5],[1,0.5]];portConstraint=eastwest;whiteSpace=wrap;html=1;" parent="SCiwUmOoLEwE7jvG9-wX-9" vertex="1">
          <mxGeometry y="138" width="400" height="26" as="geometry" />
        </mxCell>
        <mxCell id="jR9v6x0gmI3ZfGYFWs0g-19" value="+ getCargoType(): String" style="text;strokeColor=none;fillColor=none;align=left;verticalAlign=top;spacingLeft=4;spacingRight=4;overflow=hidden;rotatable=0;points=[[0,0.5],[1,0.5]];portConstraint=eastwest;whiteSpace=wrap;html=1;" parent="SCiwUmOoLEwE7jvG9-wX-9" vertex="1">
          <mxGeometry y="164" width="400" height="26" as="geometry" />
        </mxCell>
        <mxCell id="jR9v6x0gmI3ZfGYFWs0g-18" value="+ setCargoType(cargoType: String): void" style="text;strokeColor=none;fillColor=none;align=left;verticalAlign=top;spacingLeft=4;spacingRight=4;overflow=hidden;rotatable=0;points=[[0,0.5],[1,0.5]];portConstraint=eastwest;whiteSpace=wrap;html=1;" parent="SCiwUmOoLEwE7jvG9-wX-9" vertex="1">
          <mxGeometry y="190" width="400" height="26" as="geometry" />
        </mxCell>
        <mxCell id="jR9v6x0gmI3ZfGYFWs0g-39" value="+ showVehicleInfo(): void" style="text;strokeColor=none;fillColor=none;align=left;verticalAlign=top;spacingLeft=4;spacingRight=4;overflow=hidden;rotatable=0;points=[[0,0.5],[1,0.5]];portConstraint=eastwest;whiteSpace=wrap;html=1;" parent="SCiwUmOoLEwE7jvG9-wX-9" vertex="1">
          <mxGeometry y="216" width="400" height="26" as="geometry" />
        </mxCell>
        <mxCell id="jR9v6x0gmI3ZfGYFWs0g-24" value="+ toString(): String&amp;nbsp;" style="text;strokeColor=none;fillColor=none;align=left;verticalAlign=top;spacingLeft=4;spacingRight=4;overflow=hidden;rotatable=0;points=[[0,0.5],[1,0.5]];portConstraint=eastwest;whiteSpace=wrap;html=1;" parent="SCiwUmOoLEwE7jvG9-wX-9" vertex="1">
          <mxGeometry y="242" width="400" height="26" as="geometry" />
        </mxCell>
        <mxCell id="jR9v6x0gmI3ZfGYFWs0g-58" style="edgeStyle=orthogonalEdgeStyle;rounded=0;orthogonalLoop=1;jettySize=auto;html=1;entryX=0.5;entryY=0;entryDx=0;entryDy=0;endArrow=block;endFill=0;" parent="1" source="SCiwUmOoLEwE7jvG9-wX-13" target="SCiwUmOoLEwE7jvG9-wX-1" edge="1">
          <mxGeometry relative="1" as="geometry" />
        </mxCell>
        <mxCell id="SCiwUmOoLEwE7jvG9-wX-13" value="MotorcycleClass" style="swimlane;fontStyle=1;align=center;verticalAlign=top;childLayout=stackLayout;horizontal=1;startSize=26;horizontalStack=0;resizeParent=1;resizeParentMax=0;resizeLast=0;collapsible=1;marginBottom=0;whiteSpace=wrap;html=1;fillColor=#d5e8d4;strokeColor=#82b366;" parent="1" vertex="1">
          <mxGeometry x="360" y="120" width="470" height="268" as="geometry" />
        </mxCell>
        <mxCell id="SCiwUmOoLEwE7jvG9-wX-31" value="- color: String" style="text;strokeColor=none;fillColor=none;align=left;verticalAlign=top;spacingLeft=4;spacingRight=4;overflow=hidden;rotatable=0;points=[[0,0.5],[1,0.5]];portConstraint=eastwest;whiteSpace=wrap;html=1;" parent="SCiwUmOoLEwE7jvG9-wX-13" vertex="1">
          <mxGeometry y="26" width="470" height="26" as="geometry" />
        </mxCell>
        <mxCell id="SCiwUmOoLEwE7jvG9-wX-55" value="&lt;u&gt;&lt;b&gt;- numberOfMotorcycles:&amp;nbsp;&lt;/b&gt;&lt;/u&gt;&lt;u&gt;&lt;b&gt;{static] int&lt;/b&gt;&lt;/u&gt;&lt;div&gt;&lt;br&gt;&lt;/div&gt;" style="text;strokeColor=default;fillColor=none;align=left;verticalAlign=top;spacingLeft=4;spacingRight=4;overflow=hidden;rotatable=0;points=[[0,0.5],[1,0.5]];portConstraint=eastwest;whiteSpace=wrap;html=1;" parent="SCiwUmOoLEwE7jvG9-wX-13" vertex="1">
          <mxGeometry y="52" width="470" height="26" as="geometry" />
        </mxCell>
        <mxCell id="SCiwUmOoLEwE7jvG9-wX-15" value="" style="line;strokeWidth=1;fillColor=none;align=left;verticalAlign=middle;spacingTop=-1;spacingLeft=3;spacingRight=3;rotatable=0;labelPosition=right;points=[];portConstraint=eastwest;strokeColor=inherit;" parent="SCiwUmOoLEwE7jvG9-wX-13" vertex="1">
          <mxGeometry y="78" width="470" height="8" as="geometry" />
        </mxCell>
        <mxCell id="jR9v6x0gmI3ZfGYFWs0g-36" value="+ MotorcycleClass(modelIn: String, yearIn: int, color: String)" style="text;strokeColor=none;fillColor=none;align=left;verticalAlign=top;spacingLeft=4;spacingRight=4;overflow=hidden;rotatable=0;points=[[0,0.5],[1,0.5]];portConstraint=eastwest;whiteSpace=wrap;html=1;" parent="SCiwUmOoLEwE7jvG9-wX-13" vertex="1">
          <mxGeometry y="86" width="470" height="26" as="geometry" />
        </mxCell>
        <mxCell id="jR9v6x0gmI3ZfGYFWs0g-37" value="+ type(): String" style="text;strokeColor=none;fillColor=none;align=left;verticalAlign=top;spacingLeft=4;spacingRight=4;overflow=hidden;rotatable=0;points=[[0,0.5],[1,0.5]];portConstraint=eastwest;whiteSpace=wrap;html=1;" parent="SCiwUmOoLEwE7jvG9-wX-13" vertex="1">
          <mxGeometry y="112" width="470" height="26" as="geometry" />
        </mxCell>
        <mxCell id="jR9v6x0gmI3ZfGYFWs0g-38" value="+ toCsvRow(): String&amp;nbsp;" style="text;strokeColor=none;fillColor=none;align=left;verticalAlign=top;spacingLeft=4;spacingRight=4;overflow=hidden;rotatable=0;points=[[0,0.5],[1,0.5]];portConstraint=eastwest;whiteSpace=wrap;html=1;" parent="SCiwUmOoLEwE7jvG9-wX-13" vertex="1">
          <mxGeometry y="138" width="470" height="26" as="geometry" />
        </mxCell>
        <mxCell id="jR9v6x0gmI3ZfGYFWs0g-21" value="+ getColor(): String" style="text;strokeColor=none;fillColor=none;align=left;verticalAlign=top;spacingLeft=4;spacingRight=4;overflow=hidden;rotatable=0;points=[[0,0.5],[1,0.5]];portConstraint=eastwest;whiteSpace=wrap;html=1;" parent="SCiwUmOoLEwE7jvG9-wX-13" vertex="1">
          <mxGeometry y="164" width="470" height="26" as="geometry" />
        </mxCell>
        <mxCell id="jR9v6x0gmI3ZfGYFWs0g-20" value="+ setColor(color: String): void" style="text;strokeColor=none;fillColor=none;align=left;verticalAlign=top;spacingLeft=4;spacingRight=4;overflow=hidden;rotatable=0;points=[[0,0.5],[1,0.5]];portConstraint=eastwest;whiteSpace=wrap;html=1;" parent="SCiwUmOoLEwE7jvG9-wX-13" vertex="1">
          <mxGeometry y="190" width="470" height="26" as="geometry" />
        </mxCell>
        <mxCell id="SCiwUmOoLEwE7jvG9-wX-16" value="+ showVehicleInfo(): void" style="text;strokeColor=none;fillColor=none;align=left;verticalAlign=top;spacingLeft=4;spacingRight=4;overflow=hidden;rotatable=0;points=[[0,0.5],[1,0.5]];portConstraint=eastwest;whiteSpace=wrap;html=1;" parent="SCiwUmOoLEwE7jvG9-wX-13" vertex="1">
          <mxGeometry y="216" width="470" height="26" as="geometry" />
        </mxCell>
        <mxCell id="jR9v6x0gmI3ZfGYFWs0g-25" value="+ toString(): String&amp;nbsp;" style="text;strokeColor=none;fillColor=none;align=left;verticalAlign=top;spacingLeft=4;spacingRight=4;overflow=hidden;rotatable=0;points=[[0,0.5],[1,0.5]];portConstraint=eastwest;whiteSpace=wrap;html=1;" parent="SCiwUmOoLEwE7jvG9-wX-13" vertex="1">
          <mxGeometry y="242" width="470" height="26" as="geometry" />
        </mxCell>
        <mxCell id="SCiwUmOoLEwE7jvG9-wX-17" value="BicycleClass" style="swimlane;fontStyle=1;align=center;verticalAlign=top;childLayout=stackLayout;horizontal=1;startSize=26;horizontalStack=0;resizeParent=1;resizeParentMax=0;resizeLast=0;collapsible=1;marginBottom=0;whiteSpace=wrap;html=1;fillColor=#d5e8d4;strokeColor=#82b366;" parent="1" vertex="1">
          <mxGeometry x="871" y="120" width="439" height="372" as="geometry" />
        </mxCell>
        <mxCell id="SCiwUmOoLEwE7jvG9-wX-18" value="- material: String" style="text;strokeColor=none;fillColor=none;align=left;verticalAlign=top;spacingLeft=4;spacingRight=4;overflow=hidden;rotatable=0;points=[[0,0.5],[1,0.5]];portConstraint=eastwest;whiteSpace=wrap;html=1;" parent="SCiwUmOoLEwE7jvG9-wX-17" vertex="1">
          <mxGeometry y="26" width="439" height="26" as="geometry" />
        </mxCell>
        <mxCell id="SCiwUmOoLEwE7jvG9-wX-32" value="-&amp;nbsp; bikeType: String" style="text;strokeColor=none;fillColor=none;align=left;verticalAlign=top;spacingLeft=4;spacingRight=4;overflow=hidden;rotatable=0;points=[[0,0.5],[1,0.5]];portConstraint=eastwest;whiteSpace=wrap;html=1;" parent="SCiwUmOoLEwE7jvG9-wX-17" vertex="1">
          <mxGeometry y="52" width="439" height="26" as="geometry" />
        </mxCell>
        <mxCell id="SCiwUmOoLEwE7jvG9-wX-56" value="&lt;u&gt;&lt;b&gt;- numberOfBicycles:&amp;nbsp;&lt;/b&gt;&lt;/u&gt;&lt;u&gt;&lt;b&gt;{static] int&lt;/b&gt;&lt;/u&gt;&lt;div&gt;&lt;br&gt;&lt;/div&gt;" style="text;strokeColor=default;fillColor=none;align=left;verticalAlign=top;spacingLeft=4;spacingRight=4;overflow=hidden;rotatable=0;points=[[0,0.5],[1,0.5]];portConstraint=eastwest;whiteSpace=wrap;html=1;" parent="SCiwUmOoLEwE7jvG9-wX-17" vertex="1">
          <mxGeometry y="78" width="439" height="26" as="geometry" />
        </mxCell>
        <mxCell id="SCiwUmOoLEwE7jvG9-wX-19" value="" style="line;strokeWidth=1;fillColor=none;align=left;verticalAlign=middle;spacingTop=-1;spacingLeft=3;spacingRight=3;rotatable=0;labelPosition=right;points=[];portConstraint=eastwest;strokeColor=inherit;" parent="SCiwUmOoLEwE7jvG9-wX-17" vertex="1">
          <mxGeometry y="104" width="439" height="8" as="geometry" />
        </mxCell>
        <mxCell id="SCiwUmOoLEwE7jvG9-wX-20" value="+ BicycleClass(modelIn: String, yearIn: int, materialIn: String, bikeType: String)" style="text;strokeColor=none;fillColor=none;align=left;verticalAlign=top;spacingLeft=4;spacingRight=4;overflow=hidden;rotatable=0;points=[[0,0.5],[1,0.5]];portConstraint=eastwest;whiteSpace=wrap;html=1;" parent="SCiwUmOoLEwE7jvG9-wX-17" vertex="1">
          <mxGeometry y="112" width="439" height="26" as="geometry" />
        </mxCell>
        <mxCell id="jR9v6x0gmI3ZfGYFWs0g-40" value="+ type(): String" style="text;strokeColor=none;fillColor=none;align=left;verticalAlign=top;spacingLeft=4;spacingRight=4;overflow=hidden;rotatable=0;points=[[0,0.5],[1,0.5]];portConstraint=eastwest;whiteSpace=wrap;html=1;" parent="SCiwUmOoLEwE7jvG9-wX-17" vertex="1">
          <mxGeometry y="138" width="439" height="26" as="geometry" />
        </mxCell>
        <mxCell id="jR9v6x0gmI3ZfGYFWs0g-41" value="+ toCsvRow(): String&amp;nbsp;" style="text;strokeColor=none;fillColor=none;align=left;verticalAlign=top;spacingLeft=4;spacingRight=4;overflow=hidden;rotatable=0;points=[[0,0.5],[1,0.5]];portConstraint=eastwest;whiteSpace=wrap;html=1;" parent="SCiwUmOoLEwE7jvG9-wX-17" vertex="1">
          <mxGeometry y="164" width="439" height="26" as="geometry" />
        </mxCell>
        <mxCell id="jR9v6x0gmI3ZfGYFWs0g-17" value="+ getMaterial(): String" style="text;strokeColor=none;fillColor=none;align=left;verticalAlign=top;spacingLeft=4;spacingRight=4;overflow=hidden;rotatable=0;points=[[0,0.5],[1,0.5]];portConstraint=eastwest;whiteSpace=wrap;html=1;" parent="SCiwUmOoLEwE7jvG9-wX-17" vertex="1">
          <mxGeometry y="190" width="439" height="26" as="geometry" />
        </mxCell>
        <mxCell id="jR9v6x0gmI3ZfGYFWs0g-42" value="+ setMaterial(material: String): void" style="text;strokeColor=none;fillColor=none;align=left;verticalAlign=top;spacingLeft=4;spacingRight=4;overflow=hidden;rotatable=0;points=[[0,0.5],[1,0.5]];portConstraint=eastwest;whiteSpace=wrap;html=1;" parent="SCiwUmOoLEwE7jvG9-wX-17" vertex="1">
          <mxGeometry y="216" width="439" height="26" as="geometry" />
        </mxCell>
        <mxCell id="jR9v6x0gmI3ZfGYFWs0g-16" value="+ getBikeType(): String" style="text;strokeColor=none;fillColor=none;align=left;verticalAlign=top;spacingLeft=4;spacingRight=4;overflow=hidden;rotatable=0;points=[[0,0.5],[1,0.5]];portConstraint=eastwest;whiteSpace=wrap;html=1;" parent="SCiwUmOoLEwE7jvG9-wX-17" vertex="1">
          <mxGeometry y="242" width="439" height="26" as="geometry" />
        </mxCell>
        <mxCell id="jR9v6x0gmI3ZfGYFWs0g-14" value="+ setBikeType(type: String): void" style="text;strokeColor=none;fillColor=none;align=left;verticalAlign=top;spacingLeft=4;spacingRight=4;overflow=hidden;rotatable=0;points=[[0,0.5],[1,0.5]];portConstraint=eastwest;whiteSpace=wrap;html=1;" parent="SCiwUmOoLEwE7jvG9-wX-17" vertex="1">
          <mxGeometry y="268" width="439" height="26" as="geometry" />
        </mxCell>
        <mxCell id="jR9v6x0gmI3ZfGYFWs0g-49" value="+ showVehicleInfo(): void" style="text;strokeColor=none;fillColor=none;align=left;verticalAlign=top;spacingLeft=4;spacingRight=4;overflow=hidden;rotatable=0;points=[[0,0.5],[1,0.5]];portConstraint=eastwest;whiteSpace=wrap;html=1;" parent="SCiwUmOoLEwE7jvG9-wX-17" vertex="1">
          <mxGeometry y="294" width="439" height="26" as="geometry" />
        </mxCell>
        <mxCell id="wwLq3VPQ6yqFHEkdZ07c-10" value="+ addFuel(newFuelAmount: int): void&amp;nbsp;&lt;b&gt;&quot;&lt;/b&gt;" style="text;strokeColor=none;fillColor=none;align=left;verticalAlign=top;spacingLeft=4;spacingRight=4;overflow=hidden;rotatable=0;points=[[0,0.5],[1,0.5]];portConstraint=eastwest;whiteSpace=wrap;html=1;" parent="SCiwUmOoLEwE7jvG9-wX-17" vertex="1">
          <mxGeometry y="320" width="439" height="26" as="geometry" />
        </mxCell>
        <mxCell id="jR9v6x0gmI3ZfGYFWs0g-26" value="+ toString(): String&amp;nbsp;" style="text;strokeColor=none;fillColor=none;align=left;verticalAlign=top;spacingLeft=4;spacingRight=4;overflow=hidden;rotatable=0;points=[[0,0.5],[1,0.5]];portConstraint=eastwest;whiteSpace=wrap;html=1;" parent="SCiwUmOoLEwE7jvG9-wX-17" vertex="1">
          <mxGeometry y="346" width="439" height="26" as="geometry" />
        </mxCell>
        <mxCell id="jR9v6x0gmI3ZfGYFWs0g-60" style="edgeStyle=orthogonalEdgeStyle;rounded=0;orthogonalLoop=1;jettySize=auto;html=1;entryX=1;entryY=0.5;entryDx=0;entryDy=0;dashed=1;" parent="1" source="jR9v6x0gmI3ZfGYFWs0g-50" target="SCiwUmOoLEwE7jvG9-wX-37" edge="1">
          <mxGeometry relative="1" as="geometry" />
        </mxCell>
        <mxCell id="jR9v6x0gmI3ZfGYFWs0g-50" value="&lt;b&gt;CsvUtilVehicles&lt;/b&gt;" style="swimlane;fontStyle=0;childLayout=stackLayout;horizontal=1;startSize=26;fillColor=#f5f5f5;horizontalStack=0;resizeParent=1;resizeParentMax=0;resizeLast=0;collapsible=1;marginBottom=0;whiteSpace=wrap;html=1;fontColor=#333333;strokeColor=#666666;" parent="1" vertex="1">
          <mxGeometry x="1350" y="120" width="420" height="132" as="geometry" />
        </mxCell>
        <mxCell id="jR9v6x0gmI3ZfGYFWs0g-51" value="+ save(path: String, vehicles: List&amp;lt;VehicleClass&amp;gt;): void" style="text;strokeColor=none;fillColor=none;align=left;verticalAlign=top;spacingLeft=4;spacingRight=4;overflow=hidden;rotatable=0;points=[[0,0.5],[1,0.5]];portConstraint=eastwest;whiteSpace=wrap;html=1;" parent="jR9v6x0gmI3ZfGYFWs0g-50" vertex="1">
          <mxGeometry y="26" width="420" height="26" as="geometry" />
        </mxCell>
        <mxCell id="jR9v6x0gmI3ZfGYFWs0g-52" value="+ append(path: String, vehicles: List&amp;lt;VehicleClass&amp;gt;): void" style="text;strokeColor=none;fillColor=none;align=left;verticalAlign=top;spacingLeft=4;spacingRight=4;overflow=hidden;rotatable=0;points=[[0,0.5],[1,0.5]];portConstraint=eastwest;whiteSpace=wrap;html=1;" parent="jR9v6x0gmI3ZfGYFWs0g-50" vertex="1">
          <mxGeometry y="52" width="420" height="28" as="geometry" />
        </mxCell>
        <mxCell id="jR9v6x0gmI3ZfGYFWs0g-53" value="+ append(path: String, vehicle: VehicleClass): void" style="text;strokeColor=none;fillColor=none;align=left;verticalAlign=top;spacingLeft=4;spacingRight=4;overflow=hidden;rotatable=0;points=[[0,0.5],[1,0.5]];portConstraint=eastwest;whiteSpace=wrap;html=1;" parent="jR9v6x0gmI3ZfGYFWs0g-50" vertex="1">
          <mxGeometry y="80" width="420" height="26" as="geometry" />
        </mxCell>
        <mxCell id="jR9v6x0gmI3ZfGYFWs0g-54" value="+&amp;nbsp; readRows(path: String):&amp;nbsp; List&amp;lt;String[]&amp;gt;" style="text;strokeColor=none;fillColor=none;align=left;verticalAlign=top;spacingLeft=4;spacingRight=4;overflow=hidden;rotatable=0;points=[[0,0.5],[1,0.5]];portConstraint=eastwest;whiteSpace=wrap;html=1;" parent="jR9v6x0gmI3ZfGYFWs0g-50" vertex="1">
          <mxGeometry y="106" width="420" height="26" as="geometry" />
        </mxCell>
        <mxCell id="jR9v6x0gmI3ZfGYFWs0g-57" style="edgeStyle=orthogonalEdgeStyle;rounded=0;orthogonalLoop=1;jettySize=auto;html=1;entryX=0.087;entryY=0.006;entryDx=0;entryDy=0;entryPerimeter=0;endArrow=block;endFill=0;" parent="1" source="SCiwUmOoLEwE7jvG9-wX-9" target="SCiwUmOoLEwE7jvG9-wX-1" edge="1">
          <mxGeometry relative="1" as="geometry" />
        </mxCell>
        <mxCell id="jR9v6x0gmI3ZfGYFWs0g-59" style="edgeStyle=orthogonalEdgeStyle;rounded=0;orthogonalLoop=1;jettySize=auto;html=1;entryX=1.003;entryY=0.951;entryDx=0;entryDy=0;entryPerimeter=0;endArrow=block;endFill=0;" parent="1" source="SCiwUmOoLEwE7jvG9-wX-17" target="SCiwUmOoLEwE7jvG9-wX-27" edge="1">
          <mxGeometry relative="1" as="geometry" />
        </mxCell>
        <mxCell id="jR9v6x0gmI3ZfGYFWs0g-61" value="uses" style="text;html=1;align=center;verticalAlign=middle;resizable=0;points=[];autosize=1;strokeColor=none;fillColor=none;" parent="1" vertex="1">
          <mxGeometry x="1425" y="748" width="50" height="30" as="geometry" />
        </mxCell>
      </root>
    </mxGraphModel>
  </diagram>
</mxfile>
